<svg width="20" height="20" viewBox="0 0 20 20" fill="none" xmlns="http://www.w3.org/2000/svg">
<path fill-rule="evenodd" clip-rule="evenodd" d="M0.105103 10.9657C0.413158 13.0359 1.38493 14.8887 2.79751 16.3013L6.05505 13.0431C6.05841 9.74696 7.7684 6.5415 10.8282 4.77438L0.105103 10.9657Z" fill="#9B65C3"/>
<path fill-rule="evenodd" clip-rule="evenodd" d="M6.05517 13.0432C4.432 13.0449 2.78643 12.6349 1.2792 11.7651C0.862481 11.5242 0.47097 11.2565 0.105225 10.9658C0.41328 13.0354 1.38505 14.8882 2.79763 16.3008L6.05517 13.0432Z" fill="#9B65C3"/>
<path fill-rule="evenodd" clip-rule="evenodd" d="M6.05515 13.0433L2.79761 16.3008C4.21018 17.7134 6.06299 18.6852 8.13257 18.9932L14.3239 8.26953C12.5568 11.3299 9.35191 13.0399 6.05515 13.0433Z" fill="#BE63C5"/>
<path fill-rule="evenodd" clip-rule="evenodd" d="M7.3333 17.8189C6.46347 16.3117 6.05347 14.6667 6.05515 13.043L2.79761 16.3011C4.20962 17.7131 6.06299 18.6854 8.13257 18.9929C7.84187 18.6272 7.57415 18.2357 7.3333 17.8189Z" fill="#BF63C6"/>
<mask id="mask0_200_3212" style="mask-type:luminance" maskUnits="userSpaceOnUse" x="0" y="0" width="19" height="14">
<path fill-rule="evenodd" clip-rule="evenodd" d="M0 13.0433V0.520569H18.398V13.0433H0Z" fill="white"/>
</mask>
<g mask="url(#mask0_200_3212)">
<path fill-rule="evenodd" clip-rule="evenodd" d="M18.1967 0.520569L10.8286 4.77453C7.76823 6.54165 4.13766 6.41955 1.28058 4.77397C0.467878 6.17927 -0.000366211 7.80916 -0.000366211 9.54939C-0.000366211 10.0305 0.0366004 10.5032 0.104933 10.9659C0.471238 11.2566 0.862189 11.5243 1.2789 11.7652H1.27946C2.78613 12.635 4.43171 13.045 6.05488 13.0433L18.3978 0.700361C18.3345 0.63651 18.2673 0.576579 18.1967 0.520569Z" fill="#3278B1"/>
</g>
<path fill-rule="evenodd" clip-rule="evenodd" d="M1.27944 11.765C2.78667 12.6349 4.43169 13.0449 6.05542 13.0432C6.05878 9.74643 7.76821 6.54153 10.8286 4.77441L0.105469 10.9658C0.471215 11.2565 0.862725 11.5242 1.27944 11.765Z" fill="#3278B2"/>
<path fill-rule="evenodd" clip-rule="evenodd" d="M1.28095 4.77393C0.467684 6.17866 0 7.80911 0 9.54878C0 10.0305 0.0364065 10.5032 0.105299 10.9653L10.8284 4.77449C7.76804 6.54104 4.13746 6.41894 1.28095 4.77393Z" fill="#45A4EC"/>
<path fill-rule="evenodd" clip-rule="evenodd" d="M18.3982 0.700614C18.3344 0.636763 18.2672 0.576832 18.1972 0.520822C18.1042 0.446889 18.005 0.380797 17.902 0.320866C17.5514 0.118109 17.1453 0.000488281 16.7112 0.000488281H9.54921C6.01554 0.000488281 2.93218 1.92107 1.28101 4.77423C4.13752 6.4198 7.76809 6.5419 10.8285 4.77479C7.76809 6.5419 6.05866 9.7468 6.0553 13.0436C9.35206 13.0402 12.557 11.3308 14.3241 8.27038L18.578 0.90169C18.522 0.831118 18.4621 0.764466 18.3982 0.700614Z" fill="#19BB7D"/>
<path fill-rule="evenodd" clip-rule="evenodd" d="M10.8287 4.77472L18.1968 0.520757C18.1044 0.446823 18.0053 0.380732 17.9022 0.320801L1.28125 4.77416C4.13776 6.41974 7.76834 6.54184 10.8287 4.77472Z" fill="#07C7FB"/>
<path fill-rule="evenodd" clip-rule="evenodd" d="M16.7112 0H9.54921C6.01554 0 2.93218 1.92115 1.28101 4.7743L17.902 0.320378C17.5514 0.117621 17.1453 0 16.7112 0Z" fill="#59F2F7"/>
<path fill-rule="evenodd" clip-rule="evenodd" d="M14.3239 8.26989L18.5779 0.901771C18.5219 0.831198 18.462 0.763986 18.3981 0.700134L6.05518 13.0436C6.0535 14.6668 6.46349 16.3124 7.33333 17.819C7.57417 18.2363 7.8419 18.6273 8.13259 18.993C8.59524 19.0619 9.06796 19.0983 9.54909 19.0983C11.2893 19.0983 12.9192 18.6306 14.3245 17.8174C12.6789 14.9609 12.5568 11.3303 14.3239 8.26989Z" fill="#DA3757"/>
<path fill-rule="evenodd" clip-rule="evenodd" d="M6.05518 13.0433C6.0535 14.6664 6.46349 16.312 7.33333 17.8192C7.57417 18.236 7.8419 18.6275 8.13259 18.9932L14.3239 8.26953C12.5568 11.3299 9.35193 13.0399 6.05518 13.0433Z" fill="#D33C4E"/>
<path fill-rule="evenodd" clip-rule="evenodd" d="M14.3239 8.26996L8.13257 18.9931C8.59521 19.062 9.06794 19.0984 9.54906 19.0984C11.2893 19.0984 12.9192 18.6307 14.3245 17.8174C12.6789 14.9609 12.5568 11.3303 14.3239 8.26996Z" fill="#EE5A24"/>
<path fill-rule="evenodd" clip-rule="evenodd" d="M18.778 1.19661C18.7181 1.09355 18.652 0.994414 18.578 0.901437C18.522 0.830865 18.4621 0.764213 18.3982 0.700361C18.3344 0.63651 18.2677 0.576579 18.1972 0.520569L10.8285 4.77453C7.76809 6.54165 6.05866 9.74655 6.0553 13.0433C9.35205 13.0399 12.5569 11.3305 14.3241 8.27012C12.5569 11.3305 12.679 14.9611 14.3246 17.8176C17.1778 16.1664 19.0984 13.0831 19.0984 9.54939V2.38738C19.0984 1.95331 18.9807 1.54723 18.778 1.19661Z" fill="#8BDF55"/>
<path fill-rule="evenodd" clip-rule="evenodd" d="M18.1969 0.520569L10.8288 4.77453C7.7684 6.54165 6.05897 9.74655 6.05505 13.0433L18.398 0.700361C18.3347 0.63651 18.2675 0.576579 18.1969 0.520569Z" fill="#25C16F"/>
<path fill-rule="evenodd" clip-rule="evenodd" d="M6.05518 13.0431C9.35193 13.0398 12.5568 11.3298 14.3239 8.2694L18.5779 0.901271C18.5219 0.830699 18.462 0.763487 18.3981 0.700195L6.05518 13.0431Z" fill="#8BDF55"/>
<path fill-rule="evenodd" clip-rule="evenodd" d="M18.578 0.901855L14.3241 8.26998C12.557 11.3304 12.6791 14.9609 14.3246 17.818L18.778 1.19703C18.7181 1.09341 18.652 0.994832 18.578 0.901855Z" fill="#FFBB00"/>
<path fill-rule="evenodd" clip-rule="evenodd" d="M14.3245 17.8178C17.1776 16.1666 19.0988 13.0832 19.0988 9.54956V2.38755C19.0988 1.95347 18.9811 1.5474 18.7778 1.19678L14.3245 17.8178Z" fill="#FFA800"/>
</svg>
