<svg width="216" height="36" fill="none" xmlns="http://www.w3.org/2000/svg"><path fill-rule="evenodd" clip-rule="evenodd" d="M30.25 7.602c-2.91 0-3.948 2.054-3.948 3.976v1.177h-.611a.795.795 0 0 0-.798.808c0 .454.35.81.798.81h.611v8.114c0 .478.37.853.842.853a.839.839 0 0 0 .843-.853v-8.115h1.866a.795.795 0 0 0 .798-.809.795.795 0 0 0-.798-.808h-1.866v-1.177c0-1.076.392-2.359 2.263-2.359a.795.795 0 0 0 .798-.809.795.795 0 0 0-.798-.808m6.583 4.887c-1.255 0-2.328.52-2.924 1.39v-.447a.839.839 0 0 0-.842-.854.839.839 0 0 0-.842.854v9.057c0 .478.37.853.842.853a.839.839 0 0 0 .842-.853v-4.997c0-2.092 1.093-3.341 2.924-3.341.452 0 .82-.373.82-.831a.827.827 0 0 0-.82-.831m5.987 1.527c1.738 0 2.639.994 2.68 2.956h-5.637c.175-1.908 1.22-2.956 2.956-2.956Zm4.343 2.917c0-.493-.079-1.754-.806-2.823-.753-1.106-1.943-1.666-3.538-1.666-2.97 0-4.674 2.002-4.674 5.493 0 3.608 1.692 5.515 4.894 5.515 2.15 0 3.32-1.074 3.533-1.29.143-.144.282-.311.282-.611a.782.782 0 0 0-.776-.787c-.203 0-.318.053-.479.162-.62.471-1.329.931-2.56.931-1.923 0-3.134-1.282-3.186-3.357h6.291c1.019 0 1.019-.943 1.019-1.567Zm5.695.14c-1.26-.44-2.35-.82-2.35-1.769 0-1.043 1.142-1.199 1.823-1.199 1.216 0 1.827.432 2.303.896.158.16.347.242.56.242a.782.782 0 0 0 .776-.786.823.823 0 0 0-.182-.508c-.714-.957-1.942-1.483-3.457-1.483-2.163 0-3.507 1.087-3.507 2.838 0 2.141 1.854 2.777 3.49 3.338 1.235.423 2.302.788 2.302 1.704 0 1.257-1.377 1.444-2.197 1.444-1.118 0-2-.344-2.7-1.052a.808.808 0 0 0-.581-.264.782.782 0 0 0-.777.787c0 .182.05.319.184.51.642.826 2.09 1.659 3.874 1.659 2.43 0 3.881-1.153 3.881-3.084 0-2.071-1.829-2.71-3.442-3.273m7.232-3.406V7.853A.839.839 0 0 0 59.246 7a.839.839 0 0 0-.843.853v14.634c0 .479.37.854.843.854a.839.839 0 0 0 .842-.854v-5.51c0-1.98.94-2.984 2.791-2.984 1.78 0 2.505.82 2.505 2.828v5.666c0 .479.37.854.843.854a.839.839 0 0 0 .842-.854v-5.956c0-2.712-1.41-4.088-4.19-4.088-1.162 0-2.205.468-2.79 1.224Zm21.066-1.089c-.362 0-.657.209-.791.562l-2.412 6.97-1.973-6.964a.81.81 0 0 0-.792-.568.81.81 0 0 0-.794.57l-1.972 6.963-2.413-6.975a.824.824 0 0 0-.79-.558.839.839 0 0 0-.842.854c0 .11.027.24.074.36l3.239 8.992c.132.35.427.558.789.558a.848.848 0 0 0 .815-.614l1.894-6.61 1.893 6.61a.848.848 0 0 0 .815.614c.362 0 .657-.209.79-.56l3.236-8.986c.05-.124.076-.253.076-.364a.839.839 0 0 0-.842-.854m6.138 9.302c-2.056 0-3.056-1.29-3.056-3.944 0-2.601 1.028-3.92 3.056-3.92s3.056 1.319 3.056 3.92c0 2.654-1 3.943-3.056 3.943Zm.002-9.436c-3.071 0-4.763 1.95-4.763 5.493 0 3.557 1.692 5.515 4.763 5.515 3.07 0 4.762-1.958 4.762-5.515 0-3.543-1.691-5.494-4.762-5.494Zm11.306.045c-1.255 0-2.328.52-2.923 1.39v-.447a.839.839 0 0 0-.843-.854.839.839 0 0 0-.842.854v9.057c0 .478.37.853.843.853a.839.839 0 0 0 .842-.853v-4.997c0-2.092 1.093-3.341 2.923-3.341.453 0 .82-.373.82-.831a.827.827 0 0 0-.82-.831m6.417 4.467 3.505-2.837a.875.875 0 0 0 .338-.689.839.839 0 0 0-.842-.853.819.819 0 0 0-.572.21l-4.972 4.12V7.852a.839.839 0 0 0-.843-.853.839.839 0 0 0-.842.853v14.634c0 .479.37.854.842.854a.839.839 0 0 0 .843-.854v-3.524l1.183-.963 3.812 4.952.001.002c.205.26.442.387.724.387a.839.839 0 0 0 .842-.854.784.784 0 0 0-.183-.531l-3.836-5Zm9.538.117c-1.261-.44-2.349-.82-2.349-1.769 0-1.043 1.142-1.199 1.822-1.199 1.217 0 1.827.432 2.303.896.158.16.347.242.56.242a.782.782 0 0 0 .776-.786.826.826 0 0 0-.182-.508c-.714-.957-1.941-1.483-3.457-1.483-2.163 0-3.507 1.087-3.507 2.838 0 2.141 1.854 2.777 3.49 3.338 1.235.423 2.302.788 2.302 1.704 0 1.257-1.377 1.444-2.197 1.444-1.117 0-2-.344-2.699-1.052a.81.81 0 0 0-.582-.264.782.782 0 0 0-.776.787c0 .182.048.319.183.51.643.826 2.09 1.659 3.874 1.659 2.431 0 3.882-1.153 3.882-3.084 0-2.071-1.83-2.71-3.443-3.273Z" fill="#fff"/><path fill-rule="evenodd" clip-rule="evenodd" d="M2.11 21.757a10.058 10.058 0 0 0 2.793 5.608l3.381-3.424c.004-3.466 1.778-6.835 4.954-8.693L2.109 21.757Z" fill="#9B65C3"/><path fill-rule="evenodd" clip-rule="evenodd" d="M8.284 23.942A9.764 9.764 0 0 1 3.328 22.6a9.974 9.974 0 0 1-1.219-.84 10.057 10.057 0 0 0 2.794 5.608l3.381-3.425Z" fill="#9B65C3"/><path fill-rule="evenodd" clip-rule="evenodd" d="m8.285 23.939-3.38 3.424a9.839 9.839 0 0 0 5.536 2.83l6.425-11.272a9.88 9.88 0 0 1-8.58 5.018" fill="#BE63C5"/><path fill-rule="evenodd" clip-rule="evenodd" d="M9.612 28.96a10.089 10.089 0 0 1-1.327-5.02l-3.38 3.425a9.838 9.838 0 0 0 5.536 2.83 10.13 10.13 0 0 1-.83-1.235Z" fill="#BF63C6"/><path fill-rule="evenodd" clip-rule="evenodd" d="m20.883 10.776-7.646 4.472c-3.176 1.858-6.943 1.73-9.908 0A10.088 10.088 0 0 0 2 20.268c0 .506.038 1.003.11 1.489.379.305.785.587 1.217.84a9.762 9.762 0 0 0 4.956 1.344l12.809-12.975a2.462 2.462 0 0 0-.21-.19" fill="#3278B1"/><path fill-rule="evenodd" clip-rule="evenodd" d="M3.328 22.597a9.763 9.763 0 0 0 4.956 1.344c.004-3.466 1.778-6.835 4.954-8.693L2.109 21.757c.38.305.786.587 1.219.84Z" fill="#3278B2"/><path fill-rule="evenodd" clip-rule="evenodd" d="M3.33 15.248A10.088 10.088 0 0 0 2 20.268c0 .506.038 1.003.11 1.489l11.128-6.508c-3.176 1.857-6.944 1.729-9.909 0" fill="#45A4EC"/><path fill-rule="evenodd" clip-rule="evenodd" d="M21.09 10.965a2.495 2.495 0 0 0-.514-.399 2.434 2.434 0 0 0-1.236-.337h-7.432c-3.667 0-6.866 2.02-8.58 5.019 2.965 1.73 6.732 1.858 9.908 0-3.176 1.858-4.95 5.227-4.954 8.693a9.88 9.88 0 0 0 8.58-5.018l4.415-7.746a2.501 2.501 0 0 0-.186-.212" fill="#19BB7D"/><path fill-rule="evenodd" clip-rule="evenodd" d="m13.236 15.249 7.646-4.472a2.483 2.483 0 0 0-.306-.21L3.328 15.248c2.965 1.73 6.732 1.858 9.908 0" fill="#08C7FB"/><path fill-rule="evenodd" clip-rule="evenodd" d="M19.34 10.229h-7.432c-3.667 0-6.866 2.02-8.58 5.019l17.248-4.682a2.432 2.432 0 0 0-1.236-.337" fill="#59F2F6"/><path fill-rule="evenodd" clip-rule="evenodd" d="m16.866 18.924 4.415-7.746a2.483 2.483 0 0 0-.187-.211L8.285 23.942a10.116 10.116 0 0 0 2.156 6.255 9.764 9.764 0 0 0 6.425-1.236 10.144 10.144 0 0 1 0-10.037" fill="#DA3757"/><path fill-rule="evenodd" clip-rule="evenodd" d="M8.285 23.939a10.089 10.089 0 0 0 1.327 5.02c.25.438.528.85.83 1.234l6.424-11.272a9.88 9.88 0 0 1-8.58 5.018" fill="#D33C4E"/><path fill-rule="evenodd" clip-rule="evenodd" d="M16.864 18.92 10.44 30.194a9.764 9.764 0 0 0 6.425-1.236 10.145 10.145 0 0 1 0-10.036" fill="#EE5A24"/><path fill-rule="evenodd" clip-rule="evenodd" d="M21.488 11.487a2.534 2.534 0 0 0-.603-.71l-7.646 4.471c-3.176 1.858-4.95 5.227-4.954 8.693a9.88 9.88 0 0 0 8.581-5.018 10.144 10.144 0 0 0 0 10.036 10.056 10.056 0 0 0 4.955-8.691v-7.53c0-.456-.122-.883-.333-1.251" fill="#8BDF55"/><path fill-rule="evenodd" clip-rule="evenodd" d="m20.886 10.776-7.647 4.472c-3.176 1.858-4.95 5.227-4.954 8.693l12.81-12.975a2.478 2.478 0 0 0-.21-.19" fill="#25C16F"/><path fill-rule="evenodd" clip-rule="evenodd" d="M8.285 23.942a9.88 9.88 0 0 0 8.581-5.018l4.415-7.746a2.5 2.5 0 0 0-.187-.211L8.285 23.942Z" fill="#8BDF55"/><path fill-rule="evenodd" clip-rule="evenodd" d="m21.276 11.176-4.415 7.746a10.145 10.145 0 0 0 0 10.037l4.622-17.473a2.533 2.533 0 0 0-.207-.31" fill="#FB0"/><path fill-rule="evenodd" clip-rule="evenodd" d="M16.86 28.959a10.055 10.055 0 0 0 4.954-8.692v-7.529c0-.456-.122-.883-.333-1.251L16.86 28.959Z" fill="#FFA800"/><path d="M125.34 23V8.7h5.2c2.093 0 3.673.647 4.74 1.94 1.067 1.293 1.6 3.047 1.6 5.26 0 2.2-.553 3.933-1.66 5.2-1.107 1.267-2.713 1.9-4.82 1.9h-5.06Zm1.8-1.58h3.2c3.133 0 4.7-1.84 4.7-5.52 0-3.76-1.52-5.64-4.56-5.64h-3.34v11.16Zm16.052 1.86c-1.533 0-2.753-.513-3.66-1.54-.893-1.04-1.34-2.34-1.34-3.9 0-1.533.453-2.82 1.36-3.86.92-1.053 2.1-1.58 3.54-1.58 1.52 0 2.693.533 3.52 1.6.827 1.053 1.24 2.46 1.24 4.22h-8c.067 1.093.387 1.987.96 2.68.587.68 1.38 1.02 2.38 1.02 1.547 0 2.5-.707 2.86-2.12h1.58c-.24 1.107-.747 1.967-1.52 2.58-.773.6-1.747.9-2.92.9Zm2.06-8.72c-.52-.587-1.24-.88-2.16-.88-.92 0-1.653.307-2.2.92-.533.613-.867 1.413-1 2.4h6.22c-.053-1.04-.34-1.853-.86-2.44Zm6.549 8.44-3.62-10.34h1.74l2.14 6.56.68 2.18h.04c.253-.853.48-1.58.68-2.18l2.18-6.56h1.68L153.601 23h-1.8Zm10.883.28c-1.533 0-2.753-.513-3.66-1.54-.893-1.04-1.34-2.34-1.34-3.9 0-1.533.453-2.82 1.36-3.86.92-1.053 2.1-1.58 3.54-1.58 1.52 0 2.693.533 3.52 1.6.827 1.053 1.24 2.46 1.24 4.22h-8c.067 1.093.387 1.987.96 2.68.587.68 1.38 1.02 2.38 1.02 1.547 0 2.5-.707 2.86-2.12h1.58c-.24 1.107-.747 1.967-1.52 2.58-.773.6-1.747.9-2.92.9Zm2.06-8.72c-.52-.587-1.24-.88-2.16-.88-.92 0-1.653.307-2.2.92-.533.613-.867 1.413-1 2.4h6.22c-.053-1.04-.34-1.853-.86-2.44Zm4.244 8.44V8.7h1.62V23h-1.62Zm11.925-1.28c-.906 1.04-2.113 1.56-3.62 1.56-1.506 0-2.72-.52-3.64-1.56-.906-1.04-1.36-2.333-1.36-3.88 0-1.547.454-2.84 1.36-3.88.92-1.04 2.134-1.56 3.64-1.56 1.507 0 2.714.52 3.62 1.56.907 1.04 1.36 2.333 1.36 3.88 0 1.547-.453 2.84-1.36 3.88Zm-6.1-.94c.587.76 1.414 1.14 2.48 1.14 1.067 0 1.887-.38 2.46-1.14.574-.773.86-1.753.86-2.94 0-1.2-.293-2.18-.88-2.94-.573-.773-1.386-1.16-2.44-1.16-1.066 0-1.893.387-2.48 1.16-.573.773-.86 1.753-.86 2.94s.287 2.167.86 2.94Zm9.076 5.54V12.66h1.62v1.46h.04c.84-1.133 1.947-1.7 3.32-1.7 1.333 0 2.407.487 3.22 1.46.813.96 1.22 2.287 1.22 3.98 0 1.667-.4 2.993-1.2 3.98-.8.973-1.9 1.46-3.3 1.46-1.387 0-2.473-.507-3.26-1.52h-.04v4.54h-1.62Zm4.8-4.38c.96 0 1.693-.373 2.2-1.12.507-.747.76-1.727.76-2.94 0-1.213-.253-2.193-.76-2.94-.507-.76-1.233-1.14-2.18-1.14-1.08 0-1.9.387-2.46 1.16-.56.76-.84 1.733-.84 2.92 0 1.213.267 2.193.8 2.94.533.747 1.36 1.12 2.48 1.12Zm10.655 1.34c-1.533 0-2.753-.513-3.66-1.54-.893-1.04-1.34-2.34-1.34-3.9 0-1.533.454-2.82 1.36-3.86.92-1.053 2.1-1.58 3.54-1.58 1.52 0 2.694.533 3.52 1.6.827 1.053 1.24 2.46 1.24 4.22h-8c.067 1.093.387 1.987.96 2.68.587.68 1.38 1.02 2.38 1.02 1.547 0 2.5-.707 2.86-2.12h1.58c-.24 1.107-.746 1.967-1.52 2.58-.773.6-1.746.9-2.92.9Zm2.06-8.72c-.52-.587-1.24-.88-2.16-.88-.92 0-1.653.307-2.2.92-.533.613-.866 1.413-1 2.4h6.22c-.053-1.04-.34-1.853-.86-2.44Zm5.804-1.9v1.72h.04a3.98 3.98 0 0 1 1.3-1.32 3.199 3.199 0 0 1 1.78-.52c.24 0 .46.04.66.12v1.56h-.06c-.2-.067-.44-.1-.72-.1a2.89 2.89 0 0 0-2.12.88c-.586.573-.88 1.327-.88 2.26V23h-1.62V12.66h1.62Z" fill="#fff"/></svg>